<svg width="20" height="19" viewBox="0 0 20 19" fill="none" xmlns="http://www.w3.org/2000/svg">
<circle cx="9.6582" cy="9.5" r="8.675" stroke="#467BBC" stroke-width="1.65"/>
<path d="M7.39648 13.5712V13.5712C8.56675 12.1669 10.75 12.1669 11.9203 13.5712V13.5712" stroke="#467BBC" stroke-width="1.65"/>
<path d="M14.6195 8.66276C14.6586 8.66663 14.6946 8.67012 14.7278 8.67333C14.507 9.03905 14.0636 9.23095 13.6303 9.11483C13.1969 8.99871 12.9089 8.61085 12.9005 8.18369C12.9309 8.19752 12.9638 8.2125 12.9997 8.22873C13.2071 8.32263 13.4789 8.44084 13.7886 8.52383C14.0983 8.60681 14.3929 8.64037 14.6195 8.66276ZM12.961 7.82935C12.9611 7.82951 12.96 7.83197 12.9576 7.83627C12.9597 7.83135 12.9609 7.8292 12.961 7.82935ZM12.5342 8.03361C12.5341 8.03345 12.5369 8.03387 12.5429 8.03537C12.5374 8.03453 12.5343 8.03378 12.5342 8.03361ZM15.1117 8.72366C15.1176 8.72538 15.1203 8.72641 15.1201 8.72649C15.1199 8.72658 15.1169 8.72572 15.1117 8.72366ZM14.8521 8.34388C14.8522 8.33896 14.8525 8.33631 14.8526 8.33621C14.8528 8.33611 14.8527 8.33857 14.8521 8.34388Z" fill="#289CAC" stroke="#467BBC" stroke-width="1.65"/>
<path d="M4.945 8.66276C4.90582 8.66663 4.86983 8.67012 4.83662 8.67333C5.05747 9.03905 5.50081 9.23095 5.93418 9.11483C6.36755 8.99871 6.65554 8.61085 6.66395 8.18369C6.63358 8.19752 6.60066 8.2125 6.5648 8.22873C6.35738 8.32263 6.08551 8.44084 5.77582 8.52383C5.46613 8.60681 5.17157 8.64037 4.945 8.66276ZM6.60345 7.82935C6.60338 7.82951 6.60443 7.83197 6.6068 7.83627C6.60471 7.83135 6.60352 7.8292 6.60345 7.82935ZM7.03023 8.03361C7.03034 8.03345 7.02755 8.03387 7.02151 8.03537C7.02709 8.03453 7.03011 8.03378 7.03023 8.03361ZM4.45279 8.72366C4.44681 8.72538 4.44418 8.72641 4.44437 8.72649C4.44455 8.72658 4.44754 8.72572 4.45279 8.72366ZM4.71239 8.34388C4.71229 8.33896 4.71197 8.33631 4.71183 8.33621C4.7117 8.33611 4.71175 8.33857 4.71239 8.34388Z" fill="#289CAC" stroke="#467BBC" stroke-width="1.65"/>
</svg>
