<svg width="45" height="44" viewBox="0 0 45 44" fill="none" xmlns="http://www.w3.org/2000/svg">
<circle cx="22.488" cy="5.14819" r="2.4558" fill="url(#paint0_linear_1141_16583)"/>
<circle cx="22.488" cy="5.14819" r="2.4558" fill="url(#paint1_linear_1141_16583)"/>
<circle cx="22.488" cy="5.14819" r="2.4558" fill="url(#paint2_linear_1141_16583)"/>
<circle cx="41.8777" cy="8.11547" r="2.4558" fill="url(#paint3_linear_1141_16583)"/>
<circle cx="41.8777" cy="8.11547" r="2.4558" fill="url(#paint4_linear_1141_16583)"/>
<circle cx="41.8777" cy="8.11547" r="2.4558" fill="url(#paint5_linear_1141_16583)"/>
<circle cx="2.78979" cy="8.11547" r="2.4558" fill="url(#paint6_linear_1141_16583)"/>
<circle cx="2.78979" cy="8.11547" r="2.4558" fill="url(#paint7_linear_1141_16583)"/>
<circle cx="2.78979" cy="8.11547" r="2.4558" fill="url(#paint8_linear_1141_16583)"/>
<path fill-rule="evenodd" clip-rule="evenodd" d="M8.16767 37.0343H22.317H22.6299H36.6728L40.9264 12.8133L31.6772 20.4256L22.4281 8.66113L22.4202 8.67217L22.4123 8.66113L13.1632 20.4256L3.91406 12.8133L8.16767 37.0343Z" fill="url(#paint9_linear_1141_16583)"/>
<path fill-rule="evenodd" clip-rule="evenodd" d="M8.16767 37.0343H22.317H22.6299H36.6728L40.9264 12.8133L31.6772 20.4256L22.4281 8.66113L22.4202 8.67217L22.4123 8.66113L13.1632 20.4256L3.91406 12.8133L8.16767 37.0343Z" fill="url(#paint10_linear_1141_16583)" fill-opacity="0.2"/>
<path fill-rule="evenodd" clip-rule="evenodd" d="M8.16767 37.0343H22.317H22.6299H36.6728L40.9264 12.8133L31.6772 20.4256L22.4281 8.66113L22.4202 8.67217L22.4123 8.66113L13.1632 20.4256L3.91406 12.8133L8.16767 37.0343Z" fill="url(#paint11_linear_1141_16583)"/>
<path fill-rule="evenodd" clip-rule="evenodd" d="M8.16767 37.0343H22.317H22.6299H36.6728L40.9264 12.8133L31.6772 20.4256L22.4281 8.66113L22.4202 8.67217L22.4123 8.66113L13.1632 20.4256L3.91406 12.8133L8.16767 37.0343Z" fill="url(#paint12_linear_1141_16583)"/>
<path fill-rule="evenodd" clip-rule="evenodd" d="M8.49707 38.2383H8.49845H36.3749H36.3763L36.3683 38.2704L35.8803 40.6259H35.7794H9.09397H8.99304L8.50509 38.2704L8.49707 38.2383Z" fill="url(#paint13_linear_1141_16583)"/>
<path fill-rule="evenodd" clip-rule="evenodd" d="M8.49707 38.2383H8.49845H36.3749H36.3763L36.3683 38.2704L35.8803 40.6259H35.7794H9.09397H8.99304L8.50509 38.2704L8.49707 38.2383Z" fill="url(#paint14_linear_1141_16583)"/>
<path fill-rule="evenodd" clip-rule="evenodd" d="M8.49707 38.2383H8.49845H36.3749H36.3763L36.3683 38.2704L35.8803 40.6259H35.7794H9.09397H8.99304L8.50509 38.2704L8.49707 38.2383Z" fill="url(#paint15_linear_1141_16583)"/>
<defs>
<linearGradient id="paint0_linear_1141_16583" x1="20.0322" y1="1.87378" x2="32.3113" y2="14.1528" gradientUnits="userSpaceOnUse">
<stop stop-color="#F7D732"/>
<stop offset="1" stop-color="#917E1D"/>
</linearGradient>
<linearGradient id="paint1_linear_1141_16583" x1="20.6548" y1="1.68623" x2="25.8898" y2="9.40079" gradientUnits="userSpaceOnUse">
<stop stop-color="#CECECE"/>
<stop offset="0.175" stop-color="#D2D2D2"/>
<stop offset="0.464216" stop-color="#EDEDED"/>
<stop offset="0.526539" stop-color="#EFEFEF"/>
<stop offset="0.833493" stop-color="#A9A9A9"/>
</linearGradient>
<linearGradient id="paint2_linear_1141_16583" x1="24.9438" y1="8.83382" x2="19.8407" y2="2.31974" gradientUnits="userSpaceOnUse">
<stop stop-color="#CBA962"/>
<stop offset="0.392005" stop-color="#FFD47A"/>
<stop offset="0.567921" stop-color="#E1B966"/>
<stop offset="0.811401" stop-color="#DEB766"/>
<stop offset="0.99" stop-color="#C79F4C"/>
</linearGradient>
<linearGradient id="paint3_linear_1141_16583" x1="39.4219" y1="4.84107" x2="51.7009" y2="17.1201" gradientUnits="userSpaceOnUse">
<stop stop-color="#F7D732"/>
<stop offset="1" stop-color="#917E1D"/>
</linearGradient>
<linearGradient id="paint4_linear_1141_16583" x1="40.0445" y1="4.65352" x2="45.2795" y2="12.3681" gradientUnits="userSpaceOnUse">
<stop stop-color="#CECECE"/>
<stop offset="0.175" stop-color="#D2D2D2"/>
<stop offset="0.464216" stop-color="#EDEDED"/>
<stop offset="0.526539" stop-color="#EFEFEF"/>
<stop offset="0.833493" stop-color="#A9A9A9"/>
</linearGradient>
<linearGradient id="paint5_linear_1141_16583" x1="44.3335" y1="11.8011" x2="39.2304" y2="5.28703" gradientUnits="userSpaceOnUse">
<stop stop-color="#CBA962"/>
<stop offset="0.392005" stop-color="#FFD47A"/>
<stop offset="0.567921" stop-color="#E1B966"/>
<stop offset="0.811401" stop-color="#DEB766"/>
<stop offset="0.99" stop-color="#C79F4C"/>
</linearGradient>
<linearGradient id="paint6_linear_1141_16583" x1="0.333985" y1="4.84107" x2="12.613" y2="17.1201" gradientUnits="userSpaceOnUse">
<stop stop-color="#F7D732"/>
<stop offset="1" stop-color="#917E1D"/>
</linearGradient>
<linearGradient id="paint7_linear_1141_16583" x1="0.956583" y1="4.65352" x2="6.19159" y2="12.3681" gradientUnits="userSpaceOnUse">
<stop stop-color="#CECECE"/>
<stop offset="0.175" stop-color="#D2D2D2"/>
<stop offset="0.464216" stop-color="#EDEDED"/>
<stop offset="0.526539" stop-color="#EFEFEF"/>
<stop offset="0.833493" stop-color="#A9A9A9"/>
</linearGradient>
<linearGradient id="paint8_linear_1141_16583" x1="5.24559" y1="11.8011" x2="0.142464" y2="5.28703" gradientUnits="userSpaceOnUse">
<stop stop-color="#CBA962"/>
<stop offset="0.392005" stop-color="#FFD47A"/>
<stop offset="0.567921" stop-color="#E1B966"/>
<stop offset="0.811401" stop-color="#DEB766"/>
<stop offset="0.99" stop-color="#C79F4C"/>
</linearGradient>
<linearGradient id="paint9_linear_1141_16583" x1="59.4326" y1="-2.82323" x2="24.1955" y2="51.1799" gradientUnits="userSpaceOnUse">
<stop stop-color="#D7D7D7"/>
<stop offset="0.185" stop-color="#BEBEBE"/>
<stop offset="0.582377" stop-color="#CECECE"/>
<stop offset="1" stop-color="#EEEEEE"/>
</linearGradient>
<linearGradient id="paint10_linear_1141_16583" x1="22.4202" y1="8.66113" x2="22.4202" y2="37.0343" gradientUnits="userSpaceOnUse">
<stop stop-opacity="0"/>
<stop offset="1"/>
</linearGradient>
<linearGradient id="paint11_linear_1141_16583" x1="8.60576" y1="2.84886" x2="35.2527" y2="54.0737" gradientUnits="userSpaceOnUse">
<stop stop-color="#CECECE"/>
<stop offset="0.175" stop-color="#D2D2D2"/>
<stop offset="0.464216" stop-color="#EDEDED"/>
<stop offset="0.526539" stop-color="#EFEFEF"/>
<stop offset="0.833493" stop-color="#A9A9A9"/>
</linearGradient>
<linearGradient id="paint12_linear_1141_16583" x1="40.9264" y1="44.1386" x2="14.1247" y2="-0.4902" gradientUnits="userSpaceOnUse">
<stop stop-color="#CBA962"/>
<stop offset="0.392005" stop-color="#FFD47A"/>
<stop offset="0.567921" stop-color="#E1B966"/>
<stop offset="0.811401" stop-color="#DEB766"/>
<stop offset="0.99" stop-color="#C79F4C"/>
</linearGradient>
<linearGradient id="paint13_linear_1141_16583" x1="17.6813" y1="18.0646" x2="4.71652" y2="58.209" gradientUnits="userSpaceOnUse">
<stop stop-color="#ECD676"/>
<stop offset="1" stop-color="#DDAD0F"/>
</linearGradient>
<linearGradient id="paint14_linear_1141_16583" x1="32.4758" y1="37.1181" x2="31.9979" y2="43.7616" gradientUnits="userSpaceOnUse">
<stop stop-color="#CECECE"/>
<stop offset="0.175" stop-color="#D2D2D2"/>
<stop offset="0.464216" stop-color="#EDEDED"/>
<stop offset="0.526539" stop-color="#EFEFEF"/>
<stop offset="0.833493" stop-color="#A9A9A9"/>
</linearGradient>
<linearGradient id="paint15_linear_1141_16583" x1="8.49786" y1="41.3545" x2="9.01177" y2="35.1668" gradientUnits="userSpaceOnUse">
<stop stop-color="#CBA962"/>
<stop offset="0.392005" stop-color="#FFD47A"/>
<stop offset="0.567921" stop-color="#E1B966"/>
<stop offset="0.811401" stop-color="#DEB766"/>
<stop offset="0.99" stop-color="#C79F4C"/>
</linearGradient>
</defs>
</svg>
