<svg width="45" height="44" viewBox="0 0 45 44" fill="none" xmlns="http://www.w3.org/2000/svg">
<circle cx="23.155" cy="5.14819" r="2.4558" fill="url(#paint0_linear_1145_20742)"/>
<circle cx="23.155" cy="5.14819" r="2.4558" fill="url(#paint1_linear_1145_20742)"/>
<circle cx="23.155" cy="5.14819" r="2.4558" fill="url(#paint2_linear_1145_20742)"/>
<circle cx="23.155" cy="5.14819" r="2.4558" fill="url(#paint3_linear_1145_20742)"/>
<circle cx="42.5447" cy="8.11547" r="2.4558" fill="url(#paint4_linear_1145_20742)"/>
<circle cx="42.5447" cy="8.11547" r="2.4558" fill="url(#paint5_linear_1145_20742)"/>
<circle cx="42.5447" cy="8.11547" r="2.4558" fill="url(#paint6_linear_1145_20742)"/>
<circle cx="42.5447" cy="8.11547" r="2.4558" fill="url(#paint7_linear_1145_20742)"/>
<circle cx="3.45678" cy="8.11547" r="2.4558" fill="url(#paint8_linear_1145_20742)"/>
<circle cx="3.45678" cy="8.11547" r="2.4558" fill="url(#paint9_linear_1145_20742)"/>
<circle cx="3.45678" cy="8.11547" r="2.4558" fill="url(#paint10_linear_1145_20742)"/>
<circle cx="3.45678" cy="8.11547" r="2.4558" fill="url(#paint11_linear_1145_20742)"/>
<path fill-rule="evenodd" clip-rule="evenodd" d="M8.83467 37.0343H22.9839H23.2969H37.3397L41.5934 12.8133L32.3442 20.4256L23.0951 8.66113L23.0872 8.67217L23.0793 8.66113L13.8302 20.4256L4.58105 12.8133L8.83467 37.0343Z" fill="url(#paint12_linear_1145_20742)"/>
<path fill-rule="evenodd" clip-rule="evenodd" d="M8.83467 37.0343H22.9839H23.2969H37.3397L41.5934 12.8133L32.3442 20.4256L23.0951 8.66113L23.0872 8.67217L23.0793 8.66113L13.8302 20.4256L4.58105 12.8133L8.83467 37.0343Z" fill="url(#paint13_linear_1145_20742)" fill-opacity="0.2"/>
<path fill-rule="evenodd" clip-rule="evenodd" d="M8.83467 37.0343H22.9839H23.2969H37.3397L41.5934 12.8133L32.3442 20.4256L23.0951 8.66113L23.0872 8.67217L23.0793 8.66113L13.8302 20.4256L4.58105 12.8133L8.83467 37.0343Z" fill="url(#paint14_linear_1145_20742)"/>
<path fill-rule="evenodd" clip-rule="evenodd" d="M8.83467 37.0343H22.9839H23.2969H37.3397L41.5934 12.8133L32.3442 20.4256L23.0951 8.66113L23.0872 8.67217L23.0793 8.66113L13.8302 20.4256L4.58105 12.8133L8.83467 37.0343Z" fill="url(#paint15_linear_1145_20742)"/>
<path fill-rule="evenodd" clip-rule="evenodd" d="M8.83467 37.0343H22.9839H23.2969H37.3397L41.5934 12.8133L32.3442 20.4256L23.0951 8.66113L23.0872 8.67217L23.0793 8.66113L13.8302 20.4256L4.58105 12.8133L8.83467 37.0343Z" fill="url(#paint16_linear_1145_20742)"/>
<path fill-rule="evenodd" clip-rule="evenodd" d="M9.16406 38.2383H9.16544H37.0419H37.0433L37.0353 38.2704L36.5473 40.6259H36.4464H9.76096H9.66003L9.17208 38.2704L9.16406 38.2383Z" fill="url(#paint17_linear_1145_20742)"/>
<path fill-rule="evenodd" clip-rule="evenodd" d="M9.16406 38.2383H9.16544H37.0419H37.0433L37.0353 38.2704L36.5473 40.6259H36.4464H9.76096H9.66003L9.17208 38.2704L9.16406 38.2383Z" fill="url(#paint18_linear_1145_20742)"/>
<path fill-rule="evenodd" clip-rule="evenodd" d="M9.16406 38.2383H9.16544H37.0419H37.0433L37.0353 38.2704L36.5473 40.6259H36.4464H9.76096H9.66003L9.17208 38.2704L9.16406 38.2383Z" fill="url(#paint19_linear_1145_20742)"/>
<path fill-rule="evenodd" clip-rule="evenodd" d="M9.16406 38.2383H9.16544H37.0419H37.0433L37.0353 38.2704L36.5473 40.6259H36.4464H9.76096H9.66003L9.17208 38.2704L9.16406 38.2383Z" fill="url(#paint20_linear_1145_20742)"/>
<defs>
<linearGradient id="paint0_linear_1145_20742" x1="20.6992" y1="1.87378" x2="32.9782" y2="14.1528" gradientUnits="userSpaceOnUse">
<stop stop-color="#F7D732"/>
<stop offset="1" stop-color="#917E1D"/>
</linearGradient>
<linearGradient id="paint1_linear_1145_20742" x1="21.3218" y1="1.68623" x2="26.5568" y2="9.40079" gradientUnits="userSpaceOnUse">
<stop stop-color="#CECECE"/>
<stop offset="0.175" stop-color="#D2D2D2"/>
<stop offset="0.464216" stop-color="#EDEDED"/>
<stop offset="0.526539" stop-color="#EFEFEF"/>
<stop offset="0.833493" stop-color="#A9A9A9"/>
</linearGradient>
<linearGradient id="paint2_linear_1145_20742" x1="25.6108" y1="8.83382" x2="20.5077" y2="2.31974" gradientUnits="userSpaceOnUse">
<stop stop-color="#CBA962"/>
<stop offset="0.392005" stop-color="#FFD47A"/>
<stop offset="0.567921" stop-color="#E1B966"/>
<stop offset="0.811401" stop-color="#DEB766"/>
<stop offset="0.99" stop-color="#C79F4C"/>
</linearGradient>
<linearGradient id="paint3_linear_1145_20742" x1="21.3218" y1="1.68623" x2="26.5568" y2="9.40079" gradientUnits="userSpaceOnUse">
<stop stop-color="#CECECE"/>
<stop offset="0.175" stop-color="#D2D2D2"/>
<stop offset="0.464216" stop-color="#EDEDED"/>
<stop offset="0.526539" stop-color="#EFEFEF"/>
<stop offset="0.833493" stop-color="#A9A9A9"/>
</linearGradient>
<linearGradient id="paint4_linear_1145_20742" x1="40.0889" y1="4.84107" x2="52.3679" y2="17.1201" gradientUnits="userSpaceOnUse">
<stop stop-color="#F7D732"/>
<stop offset="1" stop-color="#917E1D"/>
</linearGradient>
<linearGradient id="paint5_linear_1145_20742" x1="40.7115" y1="4.65352" x2="45.9465" y2="12.3681" gradientUnits="userSpaceOnUse">
<stop stop-color="#CECECE"/>
<stop offset="0.175" stop-color="#D2D2D2"/>
<stop offset="0.464216" stop-color="#EDEDED"/>
<stop offset="0.526539" stop-color="#EFEFEF"/>
<stop offset="0.833493" stop-color="#A9A9A9"/>
</linearGradient>
<linearGradient id="paint6_linear_1145_20742" x1="45.0005" y1="11.8011" x2="39.8973" y2="5.28703" gradientUnits="userSpaceOnUse">
<stop stop-color="#CBA962"/>
<stop offset="0.392005" stop-color="#FFD47A"/>
<stop offset="0.567921" stop-color="#E1B966"/>
<stop offset="0.811401" stop-color="#DEB766"/>
<stop offset="0.99" stop-color="#C79F4C"/>
</linearGradient>
<linearGradient id="paint7_linear_1145_20742" x1="40.7115" y1="4.65352" x2="45.9465" y2="12.3681" gradientUnits="userSpaceOnUse">
<stop stop-color="#CECECE"/>
<stop offset="0.175" stop-color="#D2D2D2"/>
<stop offset="0.464216" stop-color="#EDEDED"/>
<stop offset="0.526539" stop-color="#EFEFEF"/>
<stop offset="0.833493" stop-color="#A9A9A9"/>
</linearGradient>
<linearGradient id="paint8_linear_1145_20742" x1="1.00098" y1="4.84107" x2="13.28" y2="17.1201" gradientUnits="userSpaceOnUse">
<stop stop-color="#F7D732"/>
<stop offset="1" stop-color="#917E1D"/>
</linearGradient>
<linearGradient id="paint9_linear_1145_20742" x1="1.62358" y1="4.65352" x2="6.85859" y2="12.3681" gradientUnits="userSpaceOnUse">
<stop stop-color="#CECECE"/>
<stop offset="0.175" stop-color="#D2D2D2"/>
<stop offset="0.464216" stop-color="#EDEDED"/>
<stop offset="0.526539" stop-color="#EFEFEF"/>
<stop offset="0.833493" stop-color="#A9A9A9"/>
</linearGradient>
<linearGradient id="paint10_linear_1145_20742" x1="5.91259" y1="11.8011" x2="0.809456" y2="5.28703" gradientUnits="userSpaceOnUse">
<stop stop-color="#CBA962"/>
<stop offset="0.392005" stop-color="#FFD47A"/>
<stop offset="0.567921" stop-color="#E1B966"/>
<stop offset="0.811401" stop-color="#DEB766"/>
<stop offset="0.99" stop-color="#C79F4C"/>
</linearGradient>
<linearGradient id="paint11_linear_1145_20742" x1="1.62358" y1="4.65352" x2="6.85859" y2="12.3681" gradientUnits="userSpaceOnUse">
<stop stop-color="#CECECE"/>
<stop offset="0.175" stop-color="#D2D2D2"/>
<stop offset="0.464216" stop-color="#EDEDED"/>
<stop offset="0.526539" stop-color="#EFEFEF"/>
<stop offset="0.833493" stop-color="#A9A9A9"/>
</linearGradient>
<linearGradient id="paint12_linear_1145_20742" x1="60.0995" y1="-2.82323" x2="24.8625" y2="51.1799" gradientUnits="userSpaceOnUse">
<stop stop-color="#D7D7D7"/>
<stop offset="0.185" stop-color="#BEBEBE"/>
<stop offset="0.582377" stop-color="#CECECE"/>
<stop offset="1" stop-color="#EEEEEE"/>
</linearGradient>
<linearGradient id="paint13_linear_1145_20742" x1="23.0872" y1="8.66113" x2="23.0872" y2="37.0343" gradientUnits="userSpaceOnUse">
<stop stop-opacity="0"/>
<stop offset="1"/>
</linearGradient>
<linearGradient id="paint14_linear_1145_20742" x1="9.27276" y1="2.84886" x2="35.9197" y2="54.0737" gradientUnits="userSpaceOnUse">
<stop stop-color="#CECECE"/>
<stop offset="0.175" stop-color="#D2D2D2"/>
<stop offset="0.464216" stop-color="#EDEDED"/>
<stop offset="0.526539" stop-color="#EFEFEF"/>
<stop offset="0.833493" stop-color="#A9A9A9"/>
</linearGradient>
<linearGradient id="paint15_linear_1145_20742" x1="41.5934" y1="44.1386" x2="14.7917" y2="-0.4902" gradientUnits="userSpaceOnUse">
<stop stop-color="#CBA962"/>
<stop offset="0.392005" stop-color="#FFD47A"/>
<stop offset="0.567921" stop-color="#E1B966"/>
<stop offset="0.811401" stop-color="#DEB766"/>
<stop offset="0.99" stop-color="#C79F4C"/>
</linearGradient>
<linearGradient id="paint16_linear_1145_20742" x1="9.27276" y1="2.84886" x2="35.9197" y2="54.0737" gradientUnits="userSpaceOnUse">
<stop stop-color="#CECECE"/>
<stop offset="0.175" stop-color="#D2D2D2"/>
<stop offset="0.464216" stop-color="#EDEDED"/>
<stop offset="0.526539" stop-color="#EFEFEF"/>
<stop offset="0.833493" stop-color="#A9A9A9"/>
</linearGradient>
<linearGradient id="paint17_linear_1145_20742" x1="18.3483" y1="18.0646" x2="5.38351" y2="58.209" gradientUnits="userSpaceOnUse">
<stop stop-color="#ECD676"/>
<stop offset="1" stop-color="#DDAD0F"/>
</linearGradient>
<linearGradient id="paint18_linear_1145_20742" x1="33.1428" y1="37.1181" x2="32.6649" y2="43.7616" gradientUnits="userSpaceOnUse">
<stop stop-color="#CECECE"/>
<stop offset="0.175" stop-color="#D2D2D2"/>
<stop offset="0.464216" stop-color="#EDEDED"/>
<stop offset="0.526539" stop-color="#EFEFEF"/>
<stop offset="0.833493" stop-color="#A9A9A9"/>
</linearGradient>
<linearGradient id="paint19_linear_1145_20742" x1="9.16485" y1="41.3545" x2="9.67877" y2="35.1668" gradientUnits="userSpaceOnUse">
<stop stop-color="#CBA962"/>
<stop offset="0.392005" stop-color="#FFD47A"/>
<stop offset="0.567921" stop-color="#E1B966"/>
<stop offset="0.811401" stop-color="#DEB766"/>
<stop offset="0.99" stop-color="#C79F4C"/>
</linearGradient>
<linearGradient id="paint20_linear_1145_20742" x1="12.6981" y1="37.7492" x2="13.0153" y2="43.2077" gradientUnits="userSpaceOnUse">
<stop stop-color="#CECECE"/>
<stop offset="0.175" stop-color="#D2D2D2"/>
<stop offset="0.464216" stop-color="#EDEDED"/>
<stop offset="0.526539" stop-color="#EFEFEF"/>
<stop offset="0.833493" stop-color="#A9A9A9"/>
</linearGradient>
</defs>
</svg>
